<svg width="1200" height="760" viewBox="0 0 1200 760" fill="none" xmlns="http://www.w3.org/2000/svg">
  <rect width="1200" height="760" rx="42" fill="#070708"/><rect x="1" y="1" width="1198" height="758" rx="41" stroke="white" stroke-opacity=".12"/>
  <path d="M0 160H1200M0 320H1200M0 480H1200M0 640H1200M200 0V760M400 0V760M600 0V760M800 0V760M1000 0V760" stroke="white" stroke-opacity=".035"/>
  <text x="82" y="110" fill="#D7D0BD" font-family="monospace" font-size="18" letter-spacing="5">BLINDMATCH PAS</text>
  <text x="82" y="175" fill="#F2F1EC" font-family="Inter,Arial" font-size="58" font-weight="800" letter-spacing="-3">Role separated dashboard</text>
  <rect x="82" y="242" width="250" height="390" rx="28" fill="white" fill-opacity=".055" stroke="white" stroke-opacity=".12"/>
  <rect x="372" y="242" width="746" height="390" rx="28" fill="white" fill-opacity=".045" stroke="white" stroke-opacity=".12"/>
  <text x="118" y="302" fill="#F2F1EC" font-family="Inter,Arial" font-size="26" font-weight="800">Roles</text>
  <rect x="118" y="342" width="168" height="42" rx="21" fill="#D7D0BD" fill-opacity=".16"/><rect x="118" y="402" width="190" height="42" rx="21" fill="white" fill-opacity=".07"/><rect x="118" y="462" width="148" height="42" rx="21" fill="white" fill-opacity=".07"/><rect x="118" y="522" width="174" height="42" rx="21" fill="white" fill-opacity=".07"/>
  <rect x="420" y="302" width="302" height="104" rx="22" fill="white" fill-opacity=".065"/><rect x="758" y="302" width="302" height="104" rx="22" fill="white" fill-opacity=".065"/><rect x="420" y="448" width="640" height="52" rx="16" fill="white" fill-opacity=".07"/><rect x="420" y="524" width="524" height="52" rx="16" fill="white" fill-opacity=".05"/>
  <path d="M500 408V448M910 408V448" stroke="#D7D0BD" stroke-opacity=".65" stroke-width="3" stroke-dasharray="8 10"/><circle cx="500" cy="408" r="8" fill="#D7D0BD"/><circle cx="910" cy="408" r="8" fill="#D7D0BD"/>
</svg>
