<svg width="1200" height="760" viewBox="0 0 1200 760" fill="none" xmlns="http://www.w3.org/2000/svg">
  <rect width="1200" height="760" rx="42" fill="#070708"/><rect x="1" y="1" width="1198" height="758" rx="41" stroke="white" stroke-opacity=".12"/>
  <text x="80" y="105" fill="#D7D0BD" font-family="monospace" font-size="18" letter-spacing="5">OFFLINE HARDWARE POS</text>
  <text x="80" y="170" fill="#F2F1EC" font-family="Inter,Arial" font-size="58" font-weight="800" letter-spacing="-3">Billing and barcode checkout</text>
  <rect x="74" y="238" width="1052" height="404" rx="34" fill="white" fill-opacity=".05" stroke="white" stroke-opacity=".12"/>
  <rect x="118" y="290" width="590" height="292" rx="26" fill="#050505" stroke="white" stroke-opacity=".1"/>
  <rect x="746" y="290" width="330" height="292" rx="26" fill="white" fill-opacity=".055" stroke="white" stroke-opacity=".12"/>
  <rect x="152" y="336" width="500" height="44" rx="13" fill="white" fill-opacity=".08"/><rect x="152" y="398" width="460" height="44" rx="13" fill="white" fill-opacity=".06"/><rect x="152" y="460" width="520" height="44" rx="13" fill="white" fill-opacity=".08"/>
  <text x="782" y="352" fill="#F2F1EC" font-family="Inter,Arial" font-size="34" font-weight="800">Total</text><text x="782" y="438" fill="#F2F1EC" font-family="Inter,Arial" font-size="70" font-weight="900" letter-spacing="-4">Rs 8,450</text>
  <rect x="782" y="496" width="180" height="54" rx="27" fill="#F2F1EC"/><text x="826" y="531" fill="#050505" font-family="Inter,Arial" font-size="18" font-weight="900">Print bill</text>
  <path d="M660 414H748" stroke="#D7D0BD" stroke-width="3" stroke-dasharray="10 12"/><circle cx="660" cy="414" r="8" fill="#D7D0BD"/><circle cx="748" cy="414" r="8" fill="#D7D0BD"/>
</svg>
