<svg width="1200" height="760" viewBox="0 0 1200 760" fill="none" xmlns="http://www.w3.org/2000/svg">
  <rect width="1200" height="760" rx="42" fill="#080808"/><rect x="1" y="1" width="1198" height="758" rx="41" stroke="white" stroke-opacity=".12"/>
  <circle cx="350" cy="240" r="260" fill="#D7D0BD" fill-opacity=".07"/><path d="M96 120H1104" stroke="white" stroke-opacity=".1"/>
  <text x="84" y="96" fill="#D7D0BD" font-family="monospace" font-size="18" letter-spacing="4">PROMPT TO PLAN</text>
  <rect x="84" y="166" width="600" height="430" rx="30" fill="white" fill-opacity=".055" stroke="white" stroke-opacity=".14"/>
  <text x="128" y="235" fill="#F2F1EC" font-family="Inter,Arial" font-size="38" font-weight="800">Describe your project</text>
  <rect x="128" y="284" width="492" height="180" rx="22" fill="#050505" stroke="white" stroke-opacity=".14"/>
  <text x="158" y="334" fill="white" fill-opacity=".72" font-family="monospace" font-size="20">Build a SaaS planner for students...</text>
  <rect x="128" y="496" width="190" height="54" rx="27" fill="#F2F1EC"/><text x="168" y="531" fill="#050505" font-family="Inter,Arial" font-size="18" font-weight="800">Generate</text>
  <rect x="730" y="166" width="386" height="430" rx="30" fill="white" fill-opacity=".04" stroke="white" stroke-opacity=".12"/>
  <text x="774" y="236" fill="#F2F1EC" font-family="Inter,Arial" font-size="36" font-weight="800">Structured output</text>
  <rect x="774" y="286" width="286" height="48" rx="14" fill="white" fill-opacity=".09"/><rect x="774" y="354" width="244" height="48" rx="14" fill="white" fill-opacity=".07"/><rect x="774" y="422" width="304" height="48" rx="14" fill="white" fill-opacity=".09"/><rect x="774" y="490" width="214" height="48" rx="14" fill="white" fill-opacity=".07"/>
  <path d="M660 380H742" stroke="#D7D0BD" stroke-width="3" stroke-linecap="round" stroke-dasharray="10 12"/><circle cx="660" cy="380" r="8" fill="#D7D0BD"/><circle cx="742" cy="380" r="8" fill="#D7D0BD"/>
</svg>
