<svg width="1200" height="760" viewBox="0 0 1200 760" fill="none" xmlns="http://www.w3.org/2000/svg">
  <rect width="1200" height="760" fill="#020617"/>
  <rect width="1200" height="760" fill="url(#bg)"/>
  <g opacity="0.26">
    <line x1="0" y1="0" x2="0" y2="760" stroke="white" stroke-opacity="0.08"/><line x1="52" y1="0" x2="52" y2="760" stroke="white" stroke-opacity="0.08"/><line x1="104" y1="0" x2="104" y2="760" stroke="white" stroke-opacity="0.08"/><line x1="156" y1="0" x2="156" y2="760" stroke="white" stroke-opacity="0.08"/><line x1="208" y1="0" x2="208" y2="760" stroke="white" stroke-opacity="0.08"/><line x1="260" y1="0" x2="260" y2="760" stroke="white" stroke-opacity="0.08"/><line x1="312" y1="0" x2="312" y2="760" stroke="white" stroke-opacity="0.08"/><line x1="364" y1="0" x2="364" y2="760" stroke="white" stroke-opacity="0.08"/><line x1="416" y1="0" x2="416" y2="760" stroke="white" stroke-opacity="0.08"/><line x1="468" y1="0" x2="468" y2="760" stroke="white" stroke-opacity="0.08"/><line x1="520" y1="0" x2="520" y2="760" stroke="white" stroke-opacity="0.08"/><line x1="572" y1="0" x2="572" y2="760" stroke="white" stroke-opacity="0.08"/><line x1="624" y1="0" x2="624" y2="760" stroke="white" stroke-opacity="0.08"/><line x1="676" y1="0" x2="676" y2="760" stroke="white" stroke-opacity="0.08"/><line x1="728" y1="0" x2="728" y2="760" stroke="white" stroke-opacity="0.08"/><line x1="780" y1="0" x2="780" y2="760" stroke="white" stroke-opacity="0.08"/><line x1="832" y1="0" x2="832" y2="760" stroke="white" stroke-opacity="0.08"/><line x1="884" y1="0" x2="884" y2="760" stroke="white" stroke-opacity="0.08"/><line x1="936" y1="0" x2="936" y2="760" stroke="white" stroke-opacity="0.08"/><line x1="988" y1="0" x2="988" y2="760" stroke="white" stroke-opacity="0.08"/><line x1="1040" y1="0" x2="1040" y2="760" stroke="white" stroke-opacity="0.08"/><line x1="1092" y1="0" x2="1092" y2="760" stroke="white" stroke-opacity="0.08"/><line x1="1144" y1="0" x2="1144" y2="760" stroke="white" stroke-opacity="0.08"/><line x1="1196" y1="0" x2="1196" y2="760" stroke="white" stroke-opacity="0.08"/><line x1="1248" y1="0" x2="1248" y2="760" stroke="white" stroke-opacity="0.08"/>
    <line x1="0" y1="0" x2="1200" y2="0" stroke="white" stroke-opacity="0.08"/><line x1="0" y1="52" x2="1200" y2="52" stroke="white" stroke-opacity="0.08"/><line x1="0" y1="104" x2="1200" y2="104" stroke="white" stroke-opacity="0.08"/><line x1="0" y1="156" x2="1200" y2="156" stroke="white" stroke-opacity="0.08"/><line x1="0" y1="208" x2="1200" y2="208" stroke="white" stroke-opacity="0.08"/><line x1="0" y1="260" x2="1200" y2="260" stroke="white" stroke-opacity="0.08"/><line x1="0" y1="312" x2="1200" y2="312" stroke="white" stroke-opacity="0.08"/><line x1="0" y1="364" x2="1200" y2="364" stroke="white" stroke-opacity="0.08"/><line x1="0" y1="416" x2="1200" y2="416" stroke="white" stroke-opacity="0.08"/><line x1="0" y1="468" x2="1200" y2="468" stroke="white" stroke-opacity="0.08"/><line x1="0" y1="520" x2="1200" y2="520" stroke="white" stroke-opacity="0.08"/><line x1="0" y1="572" x2="1200" y2="572" stroke="white" stroke-opacity="0.08"/><line x1="0" y1="624" x2="1200" y2="624" stroke="white" stroke-opacity="0.08"/><line x1="0" y1="676" x2="1200" y2="676" stroke="white" stroke-opacity="0.08"/><line x1="0" y1="728" x2="1200" y2="728" stroke="white" stroke-opacity="0.08"/><line x1="0" y1="780" x2="1200" y2="780" stroke="white" stroke-opacity="0.08"/>
  </g>
  <circle cx="230" cy="130" r="280" fill="#5eead4" opacity="0.18" filter="url(#blur)"/>
  <circle cx="940" cy="580" r="340" fill="#172554" opacity="0.24" filter="url(#blur)"/>
  <rect x="56" y="56" width="1088" height="648" rx="48" fill="rgba(2,6,23,0.62)" stroke="rgba(255,255,255,0.14)"/>
  <rect x="80" y="82" width="1040" height="64" rx="28" fill="rgba(255,255,255,0.07)" stroke="rgba(255,255,255,0.1)"/>
  <circle cx="120" cy="114" r="8" fill="#fb7185"/>
  <circle cx="146" cy="114" r="8" fill="#fbbf24"/>
  <circle cx="172" cy="114" r="8" fill="#34d399"/>
  <text x="220" y="122" fill="rgba(255,255,255,0.66)" font-size="16" font-family="Arial" font-weight="700" letter-spacing="2">LawPoint / Appointment Booking</text>
  <rect x="80" y="168" width="448" height="496" rx="36" fill="rgba(255,255,255,0.07)" stroke="rgba(255,255,255,0.12)"/>
  <text x="104" y="220" fill="#ffffff" font-size="34" font-family="Arial" font-weight="900">Appointment Booking</text>
  
      <g>
        <rect x="96" y="260" width="392" height="48" rx="16" fill="rgba(255,255,255,0.07)" stroke="rgba(255,255,255,0.12)"/>
        <circle cx="124" cy="284" r="7" fill="#5eead4" opacity="0.9"/>
        <text x="146" y="291" fill="rgba(255,255,255,0.88)" font-size="17" font-family="Arial" font-weight="700">Choose lawyer</text>
      </g>
      <g>
        <rect x="96" y="332" width="392" height="48" rx="16" fill="rgba(255,255,255,0.07)" stroke="rgba(255,255,255,0.12)"/>
        <circle cx="124" cy="356" r="7" fill="#5eead4" opacity="0.9"/>
        <text x="146" y="363" fill="rgba(255,255,255,0.88)" font-size="17" font-family="Arial" font-weight="700">Select slot</text>
      </g>
      <g>
        <rect x="96" y="404" width="392" height="48" rx="16" fill="rgba(255,255,255,0.07)" stroke="rgba(255,255,255,0.12)"/>
        <circle cx="124" cy="428" r="7" fill="#5eead4" opacity="0.9"/>
        <text x="146" y="435" fill="rgba(255,255,255,0.88)" font-size="17" font-family="Arial" font-weight="700">Confirm</text>
      </g>
      <g>
        <rect x="96" y="476" width="392" height="48" rx="16" fill="rgba(255,255,255,0.07)" stroke="rgba(255,255,255,0.12)"/>
        <circle cx="124" cy="500" r="7" fill="#5eead4" opacity="0.9"/>
        <text x="146" y="507" fill="rgba(255,255,255,0.88)" font-size="17" font-family="Arial" font-weight="700">Reminder</text>
      </g>
  <rect x="564" y="168" width="524" height="226" rx="36" fill="rgba(255,255,255,0.08)" stroke="rgba(255,255,255,0.12)"/>
  <text x="600" y="220" fill="#ffffff" font-size="36" font-family="Arial" font-weight="900">Booked today</text>
  <rect x="88" y="220" width="120" height="12" rx="6" fill="#5eead4" opacity="0.48"/><rect x="88" y="246" width="166" height="12" rx="6" fill="#ffffff" opacity="0.18"/><rect x="88" y="272" width="212" height="12" rx="6" fill="#5eead4" opacity="0.48"/><rect x="88" y="298" width="258" height="12" rx="6" fill="#ffffff" opacity="0.18"/><rect x="88" y="324" width="304" height="12" rx="6" fill="#5eead4" opacity="0.48"/><rect x="88" y="350" width="350" height="12" rx="6" fill="#ffffff" opacity="0.18"/>
  <rect x="564" y="424" width="250" height="240" rx="36" fill="rgba(255,255,255,0.07)" stroke="rgba(255,255,255,0.12)"/>
  <circle cx="689" cy="536" r="74" fill="none" stroke="rgba(255,255,255,0.12)" stroke-width="20"/>
  <path d="M689 462 A74 74 0 1 1 625 573" stroke="#5eead4" stroke-width="20" stroke-linecap="round"/>
  <text x="646" y="548" fill="#ffffff" font-size="34" font-family="Arial" font-weight="900">82%</text>
  <rect x="838" y="424" width="250" height="240" rx="36" fill="rgba(255,255,255,0.07)" stroke="rgba(255,255,255,0.12)"/>
  
  <g>
    <rect x="866" y="452" width="194" height="80" rx="24" fill="rgba(255,255,255,0.08)" stroke="rgba(255,255,255,0.14)"/>
    <text x="890" y="490" fill="rgba(255,255,255,0.62)" font-size="14" font-family="Arial" font-weight="700" letter-spacing="2">STATUS</text>
    <text x="890" y="530" fill="#ffffff" font-size="28" font-family="Arial" font-weight="900">Ready</text>
    <circle cx="1022" cy="494" r="10" fill="#5eead4" opacity="0.86"/>
  </g>
  
  <g>
    <rect x="866" y="552" width="194" height="80" rx="24" fill="rgba(255,255,255,0.08)" stroke="rgba(255,255,255,0.14)"/>
    <text x="890" y="590" fill="rgba(255,255,255,0.62)" font-size="14" font-family="Arial" font-weight="700" letter-spacing="2">MODE</text>
    <text x="890" y="630" fill="#ffffff" font-size="28" font-family="Arial" font-weight="900">Polished</text>
    <circle cx="1022" cy="594" r="10" fill="#5eead4" opacity="0.86"/>
  </g>
  <defs>
    <linearGradient id="bg" x1="0" y1="0" x2="1200" y2="760" gradientUnits="userSpaceOnUse">
      <stop stop-color="#172554"/>
      <stop offset="0.48" stop-color="#0f172a"/>
      <stop offset="1" stop-color="#020617"/>
    </linearGradient>
    <filter id="blur" x="-40%" y="-40%" width="180%" height="180%">
      <feGaussianBlur stdDeviation="80"/>
    </filter>
  </defs>
</svg>